<?xml version="1.0" encoding="UTF-8" standalone="no"?>
<svg
   style="height: 512px; width: 512px;"
   viewBox="0 0 512 512"
   version="1.1"
   id="svg2"
   sodipodi:docname="galleon-pwa-icon.svg"
   inkscape:version="1.4.3 (0d15f75, 2025-12-25)"
   inkscape:export-filename="Exports\galleon-pwa-icon.svg"
   inkscape:export-xdpi="96"
   inkscape:export-ydpi="96"
   xmlns:inkscape="http://www.inkscape.org/namespaces/inkscape"
   xmlns:sodipodi="http://sodipodi.sourceforge.net/DTD/sodipodi-0.dtd"
   xmlns="http://www.w3.org/2000/svg"
   xmlns:svg="http://www.w3.org/2000/svg">
  <defs
     id="defs2" />
  <sodipodi:namedview
     id="namedview2"
     pagecolor="#ffffff"
     bordercolor="#cccccc"
     borderopacity="1"
     inkscape:showpageshadow="0"
     inkscape:pageopacity="1"
     inkscape:pagecheckerboard="0"
     inkscape:deskcolor="#d1d1d1"
     inkscape:zoom="1.6227548"
     inkscape:cx="176.55162"
     inkscape:cy="280.69551"
     inkscape:window-width="2560"
     inkscape:window-height="1377"
     inkscape:window-x="-8"
     inkscape:window-y="-8"
     inkscape:window-maximized="1"
     inkscape:current-layer="layer1" />
  <g
     inkscape:groupmode="layer"
     id="layer2"
     inkscape:label="Background"
     style="height:512px;width:512px;fill:#ff0000">
    <rect
       style="fill:#050e1c;fill-opacity:1"
       id="rect2"
       width="512"
       height="512"
       x="0"
       y="0"
       rx="0" />
  </g>
  <g
     inkscape:groupmode="layer"
     id="layer1"
     inkscape:label="Foreground"
     transform="matrix(0.80612244,0,0,0.80612244,49.632655,49.632655)">
    <path
       d="M 0,0 H 512 V 512 H 0 Z"
       fill="#000000"
       fill-opacity="0.04"
       id="path1" />
    <g
       class=""
       id="g2">
      <path
         d="M 222.03,20.53 V 78.78 L 165.938,99 l 6.344,17.563 49.75,-17.938 v 96.156 l -87.155,33.845 6.75,17.406 80.406,-31.218 v 141.97 h -61.655 l -1.438,-7.594 -4.687,-25.063 H 95.812 v -142.47 l 60.157,-21.686 -6.345,-17.595 -53.813,19.406 V 78.345 H 77.126 v 90.187 l -52,18.75 6.344,17.564 45.655,-16.47 v 135.75 H 26.437 c 5.565,54.4 27.327,108.08 66.782,143.595 H 375.56 c 9.543,-51.545 39.83,-95.146 73.688,-136.44 h -0.063 L 494.594,299 483.781,283.75 416.907,331.28 H 367.25 V 219.314 l 62.188,-22.438 -6.313,-17.563 -55.875,20.157 v -67.032 h -18.688 v 73.78 l -49.937,18 6.313,17.563 43.625,-15.75 v 121.595 l -4.907,5.844 -2.812,3.31 H 240.72 V 207.564 l 87.155,-33.844 -6.78,-17.407 -80.376,31.218 V 91.907 l 56.06,-20.22 -6.342,-17.592 -49.72,17.937 v -51.5 H 222.03 Z"
         fill="#ffffff"
         fill-opacity="1"
         id="path2" />
    </g>
  </g>
</svg>
