<?xml version="1.0" encoding="UTF-8" standalone="no"?>
<!-- Created with Inkscape (http://www.inkscape.org/) -->

<svg
   width="967.49054"
   height="352.487"
   viewBox="0 0 967.49054 352.487"
   version="1.1"
   id="svg1"
   xml:space="preserve"
   inkscape:version="1.4.3 (0d15f75, 2025-12-25)"
   sodipodi:docname="ChaoticDiceStudiosLogoDarkClear.svg"
   inkscape:export-filename="Exports\logo-dark-clear.svg"
   inkscape:export-xdpi="300"
   inkscape:export-ydpi="300"
   xmlns:inkscape="http://www.inkscape.org/namespaces/inkscape"
   xmlns:sodipodi="http://sodipodi.sourceforge.net/DTD/sodipodi-0.dtd"
   xmlns="http://www.w3.org/2000/svg"
   xmlns:svg="http://www.w3.org/2000/svg"><sodipodi:namedview
     id="namedview1"
     pagecolor="#000000"
     bordercolor="#cccccc"
     borderopacity="1"
     inkscape:showpageshadow="0"
     inkscape:pageopacity="1"
     inkscape:pagecheckerboard="true"
     inkscape:deskcolor="#d1d1d1"
     inkscape:document-units="px"
     showgrid="true"
     inkscape:zoom="1.1474609"
     inkscape:cx="581.28342"
     inkscape:cy="-12.636596"
     inkscape:window-width="2560"
     inkscape:window-height="1377"
     inkscape:window-x="-8"
     inkscape:window-y="-8"
     inkscape:window-maximized="1"
     inkscape:current-layer="layer4"><inkscape:grid
       id="grid4"
       units="px"
       originx="-29.579329"
       originy="-419.99252"
       spacingx="16"
       spacingy="16"
       empcolor="#0099e5"
       empopacity="0.30196078"
       color="#0099e5"
       opacity="0.14901961"
       empspacing="5"
       enabled="true"
       visible="true" /></sodipodi:namedview><defs
     id="defs1" /><g
     inkscape:groupmode="layer"
     id="layer4"
     inkscape:label="Text"
     transform="translate(-29.579329,-419.99252)"><g
       id="g5"
       transform="translate(0,1.8071594)"
       inkscape:label="TextGroup"><path
         d="m 83.141905,708.92688 q -3.625,-0.875 -5.625,-2.875 -1.875,-2.125 -2.875,-4.875 -0.875,-2.875 -1.25,-6.25 -0.25,-3.375 -0.625,-7 0.5,-1.625 1.25,-2.75 0.875,-1.125 0.75,-3.125 1.375,-4 2.5,-7.75 1.125,-3.75 1.5,-7.75 0.75,-1.125 1.5,-1.5 1,-7.125 0.25,-14.625 -0.75,-7.5 -2.5,-13.875 0.125,-1.375 0.375,-2 0.25,-0.75 0,-1.25 -0.25,-1.125 0.75,-1.125 1,0 2,0 0,-2.25 -0.875,-4.375 -0.75,-2.25 -1.5,-5.125 1,-2.25 1.375,-4.375 0.375,-2.125 1.375,-3.875 4,1.25 7.875,2.875 3.875004,1.625 7.625004,3.25 3.750001,1.5 7.375001,3 3.625,1.375 7.125,2.25 5.375,3.875 11,7.75 5.75,3.75 10.375,8.375 4.75,4.5 7.875,10.375 3.125,5.875 3.625,13.875 -0.25,0.75 -0.375,1.25 -0.125,0.5 -0.25,1 -0.125,0.5 -0.125,1.125 0,0.625 0,1.75 -4.5,7.875 -11.375,13.25 -6.875,5.375 -15,9.5 -8.125,4.125 -17,7.625 -8.750001,3.375 -17.125005,7.25 z m 12.250004,-70.875 q -1.125,0 -1.625,0.5 1.5,5.625 2.25,10.625 0.75,5 0.75,10 0.125,5 -0.5,10.25 -0.625,5.25 -1.75,11.375 1.625,-0.125 2.875,-0.625 1.25,-0.5 2.5,-1.125 1.375001,-0.625 2.750001,-1.125 1.5,-0.5 3.375,-0.625 0.5,-1 1.25,-1.5 0.875,-0.625 1.5,-1.25 3.125,-1.25 6.25,-2.625 3.125,-1.375 5.75,-3.125 2.625,-1.75 4.75,-4 2.125,-2.25 3.5,-5.375 -1,-1.875 -2.5,-3.125 -1.375,-1.375 -3,-2.625 -1.5,-1.375 -3,-2.75 -1.375,-1.5 -2.25,-3.375 -2,-0.25 -3.5,-1 -1.5,-0.875 -2.875,-1.625 -1.375,-0.875 -3,-1.625 -1.5,-0.75 -3.625,-0.875 -3.25,-1.75 -5.875001,-2.375 -2.625,-0.75 -4,-2 z m 41.500001,71 q -1.75,-1.125 -2.75,-2.875 -1.125,-1.75 -1.75,-3.75 -0.75,-2 -1.125,-4.125 -0.5,-2.25 -1,-4.25 0,-1.75 0.75,-2.5 0.75,-0.875 1.625,-1.625 3,-0.125 5.375,-0.5 2.375,-0.375 4.625,-0.75 2.25,-0.375 4.5,-0.625 2.25,-0.375 4.875,-0.375 1.875,-3.875 3.5,-7.375 1.625,-3.625 3.125,-6.875 0.75,-3.125 1.875,-5.75 1.25,-2.75 2.375,-5.125 1.125,-2.5 2,-4.875 0.875,-2.5 1.125,-5.25 1.5,-4.375 2.625,-8 1.25,-3.75 1.875,-8.875 -4.75,0.75 -7.625,1.5 -2.875,0.625 -4.125,1.25 -2.5,-0.125 -4,-1 -1.375,-0.875 -2.25,-2.125 -0.875,-1.25 -1.5,-2.875 -0.625,-1.625 -1.5,-3.375 0.5,-1.125 0.25,-3.25 -0.25,-2.25 -1.5,-3.25 1,-0.25 1.5,-1.625 0.5,-1.5 0.125,-2.25 2.125,-0.625 4.5,-0.75 2.375,-0.25 4.625,-0.375 2.375,-0.25 4.5,-0.5 2.125,-0.375 3.625,-1.375 6.5,-0.25 13.5,-0.5 7.125,-0.25 13.125,-0.625 2.25,0.75 5.125,0.75 3,0 5.875,0.375 3,0.375 5.25,1.625 2.375,1.25 3.25,4.375 1.875,0.25 2.75,1 1,0.75 1.25,1.875 0.25,1 0.125,2.375 0,1.25 0,2.5 -2,1.5 -5.125,2.5 -3,0.875 -6.625,1.5 -3.625,0.5 -7.625,0.75 -3.875,0.125 -7.625,0.25 -0.625,4.125 -2.25,9.75 -1.5,5.5 -3.125,10.875 -1.625,5.25 -2.875,9.5 -1.125,4.125 -1,5.375 -1.25,2.875 -2.125,4.875 -0.75,2 -1.5,3.75 -0.625,1.75 -1.375,3.5 -0.625,1.625 -1.625,3.75 h 8.5 q 0.25,1.375 1.125,1.875 0.875,0.5 1.875,0.875 1,0.375 1.75,1 0.875,0.5 0.875,1.75 2.375,0.625 3,1.875 0.625,1.25 0.25,2.75 -0.25,1.375 -1.25,2.875 -0.875,1.5 -1.75,2.625 -1.125,-0.25 -2.125,0.625 -1,0.75 -1.875,1.75 -3.625,-0.5 -7.125,-0.125 -3.5,0.375 -6.5,0.625 -0.625,0.125 -0.5,0.75 0.125,0.5 -0.25,0.75 -3.875,-1.25 -8,-1 -4,0.25 -8.25,1.25 -4.125,0.875 -8.5,1.875 -4.375,1.125 -8.875,1.25 z m 75.5,-12.375 q -3.625,-2.75 -6,-6.875 -2.25,-4.125 -3.625,-8.75 -1.25,-4.625 -1.75,-9.5 -0.375,-5 -0.25,-9.5 1.125,-3.375 2.75,-6.125 1.625,-2.875 3.625,-5.375 2,-2.625 4.125,-4.875 2.25,-2.375 4.375,-4.75 0.75,0 1.375,0.375 0.5,-1.375 1.5,-2.375 1,-1 2.125,-1.75 1.125,-0.875 2.25,-1.625 1.125,-0.875 1.875,-2 3.125,-0.75 5.5,-2.125 2.5,-1.375 4.75,-3 2.25,-1.625 4.625,-3 2.375,-1.375 5.5,-2.125 1.125,-1.25 2.75,-2.125 1.75,-0.875 3.375,-1.625 1.75,-0.75 3.25,-1.625 1.625,-0.875 2.625,-2.375 0.75,1 2.125,0.75 1.375,-0.375 2.5,-0.75 0.75,-0.125 1.25,0.25 0.5,0.375 0.875,0.875 0.5,0.375 0.75,0.5 0.375,0.125 0.75,-0.75 1,0.125 0.5,0.875 -0.375,0.75 -0.5,1 1.25,-0.25 2,0.5 0.875,0.625 2.625,0.875 0.625,0.625 0.375,1 -0.25,0.375 -0.375,1.25 4.5,1.375 5.75,4.375 1.25,2.875 0.25,6.125 -1,3.125 -3.75,5.875 -2.625,2.625 -5.875,3.5 -3.875,1 -7.25,2 -3.25,1 -6.375,2.25 -3,1.25 -5.75,3 -2.625,1.625 -4.625,3.875 -3.5,1 -6.375,2.75 -2.75,1.75 -5.25,3.875 -2.375,2.125 -4.625,4.5 -2.25,2.25 -4.5,4.5 0,2.125 -0.75,3.25 -0.75,1.125 -1.625,2.25 0.25,2.375 1,4.125 0.875,1.625 1.75,3.375 10,3 21.125,3.75 11.25,0.625 22.25,0.75 1.125,1.5 2.5,2.875 1.5,1.25 2.625,2.625 1.25,1.375 1.875,3.25 0.75,1.75 0.375,4.25 -2.125,2.125 -4.625,4.125 -2.5,1.875 -5,3.75 -1.125,0.125 -2.75,0 -1.5,-0.125 -3.25,-0.125 -1.625,0 -3.375,0.25 -1.625,0.125 -3.125,0.75 -7.875,-0.25 -16.125,-1.875 -8.25,-1.75 -15.25,-4.125 -1.375,-1.625 -2.875,-3 -1.5,-1.5 -4,-2.125 z m 72.375,6.625 q -1,-1 -1.5,-2.375 -0.375,-1.375 -2,-2.25 -0.25,-1.875 -0.75,-4.25 -0.375,-2.5 -0.875,-5 -0.375,-2.625 -0.625,-5.125 -0.125,-2.625 0.25,-4.75 0.25,-1.125 0.75,-2.125 0.625,-1 1.125,-1.875 0.625,-1 0.875,-2 0.375,-1 0.125,-2 0.75,-0.125 0.875,-0.75 0.25,-0.75 1.25,-0.5 0.875,-2.75 1.875,-5.125 1,-2.375 2.125,-4.625 1.125,-2.25 2.25,-4.5 1.25,-2.375 2.25,-5.25 -2.125,-2 -3.125,-4.25 -0.875,-2.375 -1.375,-4.75 -0.5,-2.375 -0.75,-4.75 -0.25,-2.5 -1,-5 1.5,-2.25 3.625,-3.625 2.125,-1.5 4.625,-2.375 2.625,-1 5.625,-1.5 3,-0.625 6.375,-1.375 6,-1.875 10.75,-2.875 4.75,-1.125 9.25,-1.75 4.5,-0.75 9.375,-1.25 4.875,-0.625 11.25,-1.75 0.125,0.375 0.375,0.375 0.375,0 0.875,0 0.375,0.875 1.375,0.875 0,-0.375 -0.125,-0.625 0,-0.375 0,-0.625 0.25,0 0.625,0.125 0.5,0.125 0.75,0.25 0.375,0.125 0.625,0 0.25,-0.25 0.125,-0.875 1.5,2.625 3.875,4.375 2.375,1.625 5.25,2.875 0.125,1.125 0,1.625 0,0.5 -0.125,1 -0.125,0.375 -0.125,1 0,0.5 0.25,1.5 -2,3.375 -4.625,5.25 -2.5,1.875 -5.375,2.875 -2.875,1 -6.125,1.5 -3.125,0.5 -6.5,1.125 -3.25,0.5 -6.625,1.5 -3.375,1 -6.625,3 -1,-0.375 -1.875,-0.25 -0.75,0 -1.625,0.25 -0.875,0.25 -2,0.5 -1,0.25 -2.5,0 -1,0.875 -2.375,1.25 -1.25,0.375 -2.625,0.75 0.625,1.375 0.5,2.75 0,1.375 0.375,2.375 5.25,0.5 11.625,0 6.375,-0.625 12.5,-0.875 0.125,0.625 -0.125,0.875 -0.25,0.25 -0.25,0.875 1.125,0.75 2.125,1.875 1,1.125 2,2.25 1.125,1 2.25,1.75 1.125,0.625 2.625,0.5 0.625,1.25 0.875,2.625 0.25,1.375 -0.375,2.875 -2.5,1.625 -4.875,3.375 -2.375,1.625 -5,3 -2.5,1.375 -5.5,2.25 -3,0.875 -6.5,0.75 -0.625,0 -1.125,0 -0.375,0 -1,-0.5 -1.25,0.625 -3.375,0.5 -2,-0.25 -3.375,0.375 -1.75,-0.625 -4.125,-0.625 -2.25,0 -4,-0.625 -2.25,3.25 -4.25,6.875 -2,3.5 -3.5,7.5 5.125,0.75 8.5,0.625 3.375,-0.125 6.375,-0.5 3,-0.375 6.125,-0.75 3.25,-0.375 7.875,-0.25 3.125,-1.5 7.125,-2 4.125,-0.625 7.625,-1.75 1.25,0.375 2.125,1.5 0.875,1 1.625,2.125 0.875,1 1.75,1.75 0.875,0.75 2.25,0.5 0.625,0.625 0.75,1.5 0.25,0.875 0.375,1.625 0.25,0.75 0.625,1.25 0.375,0.375 1.375,0.25 -2.375,4.875 -5.375,7.5 -2.875,2.625 -6.625,4.125 -3.625,1.375 -8.25,2.125 -4.5,0.625 -10.125,1.625 -1.375,0.25 -2.375,0 -0.875,-0.375 -1.875,-0.375 -3.5,0.625 -8.375,1.25 -4.75,0.625 -9.625,0.5 -4.875,-0.125 -9.375,-1.25 -4.5,-1.125 -7.5,-4 z m 122.25,-52.125 q 0.375,-1.875 0.5,-3 0.125,-1.25 -0.875,-2.625 0.5,-2 0.75,-3.125 0.375,-1.125 0.125,-3.125 1.125,-3.25 3.375,-5.5 2.375,-2.25 5.125,-3.75 2.75,-1.625 5.75,-2.625 3,-1.125 5.625,-1.875 0,-0.5 -0.5,-0.5 -0.5,0 -0.25,-0.625 6.75,-1.25 13.5,-3.625 6.875,-2.375 14,-4.25 7.125,-1.875 14.625,-2.25 7.5,-0.5 15.75,1.875 0.5,1.5 1.375,2.875 0.875,1.375 1.75,2.75 1,1.25 1.75,2.5 0.75,1.25 0.875,2.625 1.5,1.375 2.375,3 1,1.5 0.375,4.125 -1.375,1 -2.875,2 -1.5,1 -3.125,1.875 -5.625,-1.375 -11.25,-1 -5.625,0.375 -10.125,0.875 -1.375,-1.5 -3.25,-1.375 -1.875,0 -4,0.625 -2,0.5 -4,1.125 -2,0.5 -3.75,0.25 -1.375,1.25 -3.625,1.75 -2.25,0.375 -4.75,0.625 -0.125,0.625 0.25,0.875 0.375,0.25 0.125,1 0.875,1.125 2.375,1.625 1.5,0.375 3,0.75 1.625,0.375 2.875,1.125 1.25,0.625 1.625,2.125 2.25,0.125 3.875,1.25 1.625,1 2.75,2.5 1.125,1.5 1.625,3.25 0.5,1.625 0.375,3 0.5,1.25 1,1 0.625,-0.25 1.375,0.625 0.5,1.875 2.25,4 1.875,2 2.875,4.375 0.25,3.75 0.375,6.75 0.25,3 -1,5.875 -2.125,5.5 -6.125,9.875 -4,4.375 -9.125,7.75 -5,3.25 -10.625,5.75 -5.625,2.375 -11.125,4 -0.5,-0.125 -1.25,0 -0.625,0.125 -0.25,-0.75 -1.125,1 -2.625,1.25 -1.375,0.25 -3.125,0.125 -1.625,0 -3.375,-0.125 -1.625,-0.125 -3.25,0.125 -1,-1 -1.875,-2 -0.75,-1 -1.25,-2.375 -0.625,-0.125 -0.625,-0.75 0.125,-0.75 -0.5,-0.75 0,-0.5 0.125,-0.75 0.125,-0.25 0.25,-0.5 0.5,-0.375 0.375,-0.5 0,-0.25 -0.375,-0.375 -0.25,-0.25 -0.625,-0.5 -0.25,-0.25 -0.125,-0.625 0.625,-1.125 0.375,-2.625 -0.125,-1.625 -0.25,-3.25 -0.125,-1.625 0.25,-3 0.375,-1.5 2.125,-2.5 5.125,0.5 9.625,-0.5 4.625,-1 8.625,-2.75 4.125,-1.75 7.75,-3.75 3.75,-2.125 7.25,-3.875 0.375,-1.25 1.125,-2.125 0.875,-0.875 1.75,-1.625 0.875,-0.875 1.625,-1.75 0.75,-1 1.125,-2.375 0.125,-0.5 0,-0.75 -0.125,-0.25 -0.375,-0.375 -0.25,-0.25 -0.5,-0.5 -0.25,-0.25 -0.25,-0.75 -0.375,-0.125 -0.75,-0.25 -0.25,-0.125 -0.5,-0.125 -3.25,-1.625 -6.875,-2.75 -3.625,-1.125 -6.125,-2.5 -1.5,1 -3,0.5 -1.5,-0.5 -3.625,-1 -5.25,-0.25 -10,-1 -4.625,-0.75 -9,-2.625 -0.25,-0.75 -0.625,-1.25 -0.375,-0.625 -1.75,-0.375 -0.875,-1.25 -1.875,-2.25 -0.875,-1.125 -1.625,-2.5 z m 74.875,-14.125 q -0.125,-1 -0.5,-1.75 -0.25,-0.875 -0.625,-1.875 -0.625,-1.5 -1.125,-3.25 -0.5,-1.75 -0.5,-4.125 0.25,-1.25 0.625,-1.75 0.375,-0.625 0.75,-1 l 0.5,-2.25 h 1.875 q 1,0.125 2,0.125 1.125,0 2.125,0 4.75,0 9.75,-0.375 5,-0.375 10.25,-0.875 5.75,-0.75 12.375,-1.125 0.625,-1.375 0.75,-1.75 0.25,-0.375 0.5,-0.875 l 1.375,-0.75 q 2.875,-0.125 4,0.75 1.125,0.75 1.75,1.5 3.25,-0.25 6.625,-0.625 3.375,-0.5 7,-1 5,-0.625 10.125,-1.25 5.125,-0.625 10,-0.625 2.125,0 4,0.125 1.875,0.125 3.625,0.375 l 1.5,1.125 q 0.5,0.875 1.25,1.625 0.75,0.75 1.75,1.5 1.875,1.5 3.625,3.75 1.875,2.25 1.375,6.625 l -0.625,1.25 q -0.5,0.5 -1.25,1 l -1.25,1.625 h -1.375 q -1.25,0 -1.875,0.25 -0.625,0.125 -1.5,0.5 -0.5,0.25 -1.125,0.5 -0.625,0.125 -1.375,0.375 -1.375,-0.125 -2.125,-0.125 -0.75,0 -1.75,0 -3.75,0 -8.125,0.5 -4.375,0.5 -8.5,1.125 -3,0.375 -5.75,0.75 -2.75,0.25 -5,0.5 -1.25,3.25 -2.25,5.75 -1,2.5 -2.125,5 -1.125,2.5 -2.125,5.125 -1,2.5 -1.875,5.625 -1.5,2.25 -2.5,4.375 -1,2 -1.625,4.625 -1.875,2.125 -2.75,4.625 -0.75,2.5 -1.375,4.25 l -0.5,1.875 q -0.875,0.875 -1.125,1.375 -0.125,0.5 -0.625,1.125 -0.375,1.625 -1,3.125 -0.25,0.625 -0.5,1.375 -0.25,0.625 -0.125,1 -0.25,1.375 -0.75,2.125 0,0.75 -0.125,1.5 -0.125,0.75 -0.25,1.5 -0.25,0.875 -0.375,1.625 -0.125,0.625 0.125,1.25 0.375,0.5 0.75,1 0.375,0.5 0.625,1.25 0.25,0.25 0.625,0.375 0.375,0.125 0.625,0.375 1,0.875 1.875,1 l 1.25,1.5 q 0.75,4.5 -1.375,7 -2.25,2.875 -7.5,2.875 l -1.75,-0.125 q -0.875,-0.875 -1,-1.125 -1.125,-0.5 -1.875,-0.875 -0.75,-0.25 -1.375,-1.125 -0.25,-0.25 -0.625,-0.25 -0.375,-0.125 -0.625,-0.375 -1.25,-0.375 -2,-0.875 l -1.375,-0.75 q 0.125,-1.25 0.125,-1.75 -1,-1.375 -1.625,-3 -0.5,-1.625 -0.875,-3.375 -0.375,-1.375 -0.75,-2.5 -0.25,-1.125 -0.875,-2 -0.25,-8.75 1.625,-14.625 1.875,-6 4.125,-11.625 1.25,-3 2.375,-6.125 1.125,-3.125 2,-6.375 l 1.375,-1.375 q 0.875,-0.75 1.125,-0.875 0,-1.625 0.625,-3.125 0.625,-1.625 1.375,-3.25 0.5,-1 0.875,-2 0.5,-1 0.625,-1.75 -0.875,0 -1.625,0.125 -0.625,0 -1.375,0.125 -1.625,0.375 -3.125,0.375 -1.125,0 -1.625,-0.125 -1,0.5 -1.875,0.625 -0.875,0 -1.75,0 h -1.5 -1.5 q -1.5,0 -2.375,0.375 -1.75,0 -2.25,0 -0.5,0 -1.125,0 h -1.5 -1.5 q -1,0 -2.25,-0.125 -1.25,-0.25 -2.625,-1 l -0.875,-1 q -0.75,-1.375 -1.375,-1.5 l -1.375,-0.375 z m 84,8.625 q -0.25,-1.625 -0.625,-2 0.875,-2.25 1.25,-4.375 0.5,-2.25 0.75,-4.25 0.25,-1.75 0.5,-3.25 0.375,-1.5 0.875,-2.875 2.125,-0.5 3.125,-1.75 1.125,-1.375 1.75,-2.375 2.25,-0.125 2.875,0.625 0.75,0.75 1.625,2.5 0.625,1.375 1.75,3 1.125,1.5 3.375,2.375 0.375,1.375 0.875,2.625 0.5,1.25 1.125,2.625 1.125,2.625 2.125,5.5 1,2.75 1.125,5.25 -1.5,2.875 -2.375,6.625 -0.75,3.75 -1,7.625 -0.125,3.75 0.25,7.25 0.375,3.5 1.25,5.875 l 0.75,2 2.75,-0.25 q 4.5,-1.125 8.125,-2.5 3.625,-1.5 6.75,-3.5 3.125,-2 6,-4.5 2.875,-2.625 6,-6.125 3,-3.5 5.375,-7.875 2.375,-4.5 3.875,-9.25 1.625,-4.75 2.5,-9.5 0.875,-4.75 1.125,-8.875 2.375,-1.125 2.625,-3.625 l -0.375,-1.625 q -0.375,-0.625 -0.375,-1.125 0.125,-0.625 0.375,-1.125 1,-2.875 4.25,-4.25 2.25,1.5 4.125,3.25 2,1.75 3.625,3.5 0.25,3.375 1,5.875 0.75,2.375 1.625,4.625 0.875,2.125 1.5,4.125 0.75,2 1,4.875 -1.25,3.75 -1.875,7.125 -0.5,3.25 -1,6.875 l -0.25,1.375 q -2.25,3.875 -4.5,8 -2.125,4 -3.5,7 -0.75,0.75 -1.375,1.75 -0.5,1 -1,2 -0.25,0.375 -0.75,1.25 -0.375,0.875 -0.75,1.25 l -3,-1.125 -0.75,3.875 -2,0.5 -1.5,1.75 q -2.875,5 -6.125,8.375 -3.125,3.375 -7.125,6 -3.875,2.625 -8.875,5 -4.875,2.25 -11.25,4.875 -2.5,-0.375 -4.375,-0.375 -1.75,-0.125 -3.5,-0.25 -1.75,0 -3.375,-0.125 -1.625,-0.125 -3.75,-0.375 -0.5,-1.125 -1.375,-1.625 -0.875,-0.5 -1.625,-0.5 -2.5,-1.25 -3.75,-3.5 -1.25,-2.25 -2.625,-5 -0.625,-1.5 -1.375,-3 -0.625,-1.5 -1.625,-2.875 l 2.5,-0.75 -3.25,-3.75 q -0.375,-0.375 -0.875,-0.75 -0.375,-0.375 -0.75,-0.875 v -2.375 q -0.5,-10.25 -0.5,-18.875 0.125,-8.75 2.375,-15.375 z m 92.25,63.25 q -3.625,-0.875 -5.625,-2.875 -1.875,-2.125 -2.875,-4.875 -0.875,-2.875 -1.25,-6.25 -0.25,-3.375 -0.625,-7 0.5,-1.625 1.25,-2.75 0.875,-1.125 0.75,-3.125 1.375,-4 2.5,-7.75 1.125,-3.75 1.5,-7.75 0.75,-1.125 1.5,-1.5 1,-7.125 0.25,-14.625 -0.75,-7.5 -2.5,-13.875 0.125,-1.375 0.375,-2 0.25,-0.75 0,-1.25 -0.25,-1.125 0.75,-1.125 1,0 2,0 0,-2.25 -0.875,-4.375 -0.75,-2.25 -1.5,-5.125 1,-2.25 1.375,-4.375 0.375,-2.125 1.375,-3.875 4,1.25 7.875,2.875 3.875,1.625 7.625,3.25 3.75,1.5 7.375,3 3.625,1.375 7.125,2.25 5.375,3.875 11,7.75 5.75,3.75 10.375,8.375 4.75,4.5 7.875,10.375 3.125,5.875 3.625,13.875 -0.25,0.75 -0.375,1.25 -0.125,0.5 -0.25,1 -0.125,0.5 -0.125,1.125 0,0.625 0,1.75 -4.5,7.875 -11.375,13.25 -6.875,5.375 -15,9.5 -8.125,4.125 -17,7.625 -8.75,3.375 -17.125,7.25 z m 12.25,-70.875 q -1.125,0 -1.625,0.5 1.5,5.625 2.25,10.625 0.75,5 0.75,10 0.125,5 -0.5,10.25 -0.625,5.25 -1.75,11.375 1.625,-0.125 2.875,-0.625 1.25,-0.5 2.5,-1.125 1.375,-0.625 2.75,-1.125 1.5,-0.5 3.375,-0.625 0.5,-1 1.25,-1.5 0.875,-0.625 1.5,-1.25 3.125,-1.25 6.25,-2.625 3.125,-1.375 5.75,-3.125 2.625,-1.75 4.75,-4 2.125,-2.25 3.5,-5.375 -1,-1.875 -2.5,-3.125 -1.375,-1.375 -3,-2.625 -1.5,-1.375 -3,-2.75 -1.375,-1.5 -2.25,-3.375 -2,-0.25 -3.5,-1 -1.5,-0.875 -2.875,-1.625 -1.375,-0.875 -3,-1.625 -1.5,-0.75 -3.625,-0.875 -3.25,-1.75 -5.875,-2.375 -2.625,-0.75 -4,-2 z m 41.5,71 q -1.75,-1.125 -2.75,-2.875 -1.125,-1.75 -1.75,-3.75 -0.75,-2 -1.125,-4.125 -0.5,-2.25 -1,-4.25 0,-1.75 0.75,-2.5 0.75,-0.875 1.625,-1.625 3,-0.125 5.375,-0.5 2.375,-0.375 4.625,-0.75 2.25,-0.375 4.5,-0.625 2.25,-0.375 4.875,-0.375 1.875,-3.875 3.5,-7.375 1.625,-3.625 3.125,-6.875 0.75,-3.125 1.875,-5.75 1.25,-2.75 2.375,-5.125 1.125,-2.5 2,-4.875 0.875,-2.5 1.125,-5.25 1.5,-4.375 2.625,-8 1.25,-3.75 1.875,-8.875 -4.75,0.75 -7.625,1.5 -2.875,0.625 -4.125,1.25 -2.5,-0.125 -4,-1 -1.375,-0.875 -2.25,-2.125 -0.875,-1.25 -1.5,-2.875 -0.625,-1.625 -1.5,-3.375 0.5,-1.125 0.25,-3.25 -0.25,-2.25 -1.5,-3.25 1,-0.25 1.5,-1.625 0.5,-1.5 0.125,-2.25 2.125,-0.625 4.5,-0.75 2.375,-0.25 4.625,-0.375 2.375,-0.25 4.5,-0.5 2.125,-0.375 3.625,-1.375 6.5,-0.25 13.5,-0.5 7.125,-0.25 13.125,-0.625 2.25,0.75 5.125,0.75 3,0 5.875,0.375 3,0.375 5.25,1.625 2.375,1.25 3.25,4.375 1.875,0.25 2.75,1 1,0.75 1.25,1.875 0.25,1 0.125,2.375 0,1.25 0,2.5 -2,1.5 -5.125,2.5 -3,0.875 -6.625,1.5 -3.625,0.5 -7.625,0.75 -3.875,0.125 -7.625,0.25 -0.625,4.125 -2.25,9.75 -1.5,5.5 -3.125,10.875 -1.625,5.25 -2.875,9.5 -1.125,4.125 -1,5.375 -1.25,2.875 -2.125,4.875 -0.75,2 -1.5,3.75 -0.625,1.75 -1.375,3.5 -0.625,1.625 -1.625,3.75 h 8.5 q 0.25,1.375 1.125,1.875 0.875,0.5 1.875,0.875 1,0.375 1.75,1 0.875,0.5 0.875,1.75 2.375,0.625 3,1.875 0.625,1.25 0.25,2.75 -0.25,1.375 -1.25,2.875 -0.875,1.5 -1.75,2.625 -1.125,-0.25 -2.125,0.625 -1,0.75 -1.875,1.75 -3.625,-0.5 -7.125,-0.125 -3.5,0.375 -6.5,0.625 -0.625,0.125 -0.5,0.75 0.125,0.5 -0.25,0.75 -3.875,-1.25 -8,-1 -4,0.25 -8.25,1.25 -4.125,0.875 -8.5,1.875 -4.375,1.125 -8.875,1.25 z m 91.5,-1 q -5.5,0.75 -10,-0.5 -4.5,-1.25 -8.125,-3.875 -3.5,-2.625 -6.125,-6.25 -2.5,-3.625 -4.125,-7.75 -1.125,-8.5 0.625,-15.375 1.75,-7 5.125,-12.875 3.375,-5.875 7.625,-11 4.375,-5.125 8.375,-9.875 0.875,0.375 1.375,0 0.625,-0.375 1,-1 0.5,-0.625 1,-1.25 0.625,-0.625 1.375,-0.875 0.5,-1.125 1.25,-1.875 0.875,-0.75 1.75,-1.375 1,-0.75 1.75,-1.5 0.875,-0.75 1.5,-1.875 1.25,-0.25 2.125,-0.875 1,-0.625 1.75,-1.375 0.875,-0.75 1.75,-1.375 0.875,-0.625 2.125,-1 v -1.625 q 2.75,-1.25 4,-2.75 1.25,-1.5 3,-3.875 1.375,-0.125 2.125,-0.125 0.875,0 2.625,-0.25 1.125,-2.125 2.125,-3.125 1,-1 2.875,-2.25 1.875,1 4,1.25 2.125,0.125 3.875,1.875 0.125,1.5 0.875,2.375 0.75,0.75 1.625,1.5 0.875,0.625 1.75,1.375 0.875,0.75 1.125,2.125 0.625,0 0.75,-0.25 0.25,-0.25 0.875,-0.125 0.25,1 0.5,1.625 0.25,0.625 0.5,1.125 0.375,0.5 0.625,1.125 0.375,0.625 0.625,1.5 -0.625,1.5 -1.125,3.25 -0.5,1.625 -2,2.25 0,1 0.75,1.125 0.75,0 0.875,0.875 0.125,1.125 -0.375,1.875 3.5,5.875 6.375,12.375 2.875,6.375 6.5,12.25 -0.25,1.75 0.125,3.5 0.5,1.625 1.125,3.25 0.75,1.625 1.375,3.25 0.625,1.625 0.875,3.25 0.25,2.125 0,4.625 -0.25,2.375 -1,4.625 -0.75,2.25 -2,4.25 -1.25,1.875 -2.875,2.875 -2,2.5 -5,4.125 -3,1.5 -5.5,3.625 -1.75,1 -3.75,1.5 -2,0.375 -4.125,0.875 -1.625,1 -3.875,2 -2.25,0.875 -4.625,1.625 -2.375,0.75 -4.75,1.25 -2.375,0.375 -4.25,0.125 -4.5,1.625 -8.75,2.25 -4.25,0.625 -10,-0.625 z m 1.625,-45.5 q -1.25,2.875 -3,5.25 -1.625,2.25 -3.25,4.625 -1.625,2.375 -2.875,5.125 -1.125,2.625 -1.25,6.25 2.5,2.125 5.875,2.625 3.5,0.375 7.125,0.125 3.625,-0.375 7.25,-1 3.625,-0.625 6.5,-0.625 0,-1.125 1,-1.125 5.25,-0.5 9.75,-2.875 4.5,-2.5 9.375,-5 0.625,-1.5 1.625,-2.625 1,-1.125 1.125,-3.25 -0.625,-1.125 -0.875,-1.875 -0.125,-0.75 -0.125,-2.25 -3.25,-4.5 -5.625,-9.75 -2.375,-5.375 -5.5,-10.125 -0.25,0.625 -1,1.25 -0.75,0.625 -1.625,-0.25 -0.375,1.25 -1.125,1.75 -0.75,0.375 -1.75,0.375 -0.875,0 -1.875,-0.375 -0.875,-0.375 -1.625,-1 -4.375,3.5 -8.75,6.75 -4.25,3.25 -7.75,7.625 -0.625,0.375 -0.75,0.25 -0.125,-0.125 -0.875,0.125 z m 62.625,-11.375 q 0.375,-1.875 0.5,-3 0.125,-1.25 -0.875,-2.625 0.5,-2 0.75,-3.125 0.375,-1.125 0.125,-3.125 1.125,-3.25 3.375,-5.5 2.375,-2.25 5.125,-3.75 2.75,-1.625 5.75,-2.625 3,-1.125 5.625,-1.875 0,-0.5 -0.5,-0.5 -0.5,0 -0.25,-0.625 6.75,-1.25 13.5,-3.625 6.875,-2.375 14,-4.25 7.125,-1.875 14.625,-2.25 7.5,-0.5 15.75,1.875 0.5,1.5 1.375,2.875 0.875,1.375 1.75,2.75 1,1.25 1.75,2.5 0.75,1.25 0.875,2.625 1.5,1.375 2.375,3 1,1.5 0.375,4.125 -1.375,1 -2.875,2 -1.5,1 -3.125,1.875 -5.625,-1.375 -11.25,-1 -5.625,0.375 -10.125,0.875 -1.375,-1.5 -3.25,-1.375 -1.875,0 -4,0.625 -2,0.5 -4,1.125 -2,0.5 -3.75,0.25 -1.375,1.25 -3.625,1.75 -2.25,0.375 -4.75,0.625 -0.125,0.625 0.25,0.875 0.375,0.25 0.125,1 0.875,1.125 2.375,1.625 1.5,0.375 3,0.75 1.625,0.375 2.875,1.125 1.25,0.625 1.625,2.125 2.25,0.125 3.875,1.25 1.625,1 2.75,2.5 1.125,1.5 1.625,3.25 0.5,1.625 0.375,3 0.5,1.25 1,1 0.625,-0.25 1.375,0.625 0.5,1.875 2.25,4 1.875,2 2.875,4.375 0.25,3.75 0.375,6.75 0.25,3 -1,5.875 -2.125,5.5 -6.125,9.875 -4,4.375 -9.125,7.75 -5,3.25 -10.625,5.75 -5.625,2.375 -11.125,4 -0.5,-0.125 -1.25,0 -0.625,0.125 -0.25,-0.75 -1.125,1 -2.625,1.25 -1.375,0.25 -3.125,0.125 -1.625,0 -3.375,-0.125 -1.625,-0.125 -3.25,0.125 -1,-1 -1.875,-2 -0.75,-1 -1.25,-2.375 -0.625,-0.125 -0.625,-0.75 0.125,-0.75 -0.5,-0.75 0,-0.5 0.125,-0.75 0.125,-0.25 0.25,-0.5 0.5,-0.375 0.375,-0.5 0,-0.25 -0.375,-0.375 -0.25,-0.25 -0.625,-0.5 -0.25,-0.25 -0.125,-0.625 0.625,-1.125 0.375,-2.625 -0.125,-1.625 -0.25,-3.25 -0.125,-1.625 0.25,-3 0.375,-1.5 2.125,-2.5 5.125,0.5 9.625,-0.5 4.625,-1 8.625,-2.75 4.125,-1.75 7.75,-3.75 3.75,-2.125 7.25,-3.875 0.375,-1.25 1.125,-2.125 0.875,-0.875 1.75,-1.625 0.875,-0.875 1.625,-1.75 0.75,-1 1.125,-2.375 0.125,-0.5 0,-0.75 -0.125,-0.25 -0.375,-0.375 -0.25,-0.25 -0.5,-0.5 -0.25,-0.25 -0.25,-0.75 -0.375,-0.125 -0.75,-0.25 -0.25,-0.125 -0.5,-0.125 -3.25,-1.625 -6.875,-2.75 -3.625,-1.125 -6.125,-2.5 -1.5,1 -3,0.5 -1.5,-0.5 -3.625,-1 -5.25,-0.25 -10,-1 -4.625,-0.75 -9,-2.625 -0.25,-0.75 -0.625,-1.25 -0.375,-0.625 -1.75,-0.375 -0.875,-1.25 -1.875,-2.25 -0.875,-1.125 -1.625,-2.5 z"
         id="text4-7"
         style="font-size:128px;font-family:'Permanent Marker';-inkscape-font-specification:'Permanent Marker, Normal';fill:#ffffff"
         aria-label="DICE STUDIOS"
         inkscape:label="DiceStudiosText" /><path
         d="m 242.24301,563.18085 q -3.625,-2.75 -6,-6.875 -2.25,-4.125 -3.625,-8.75 -1.25,-4.625 -1.75,-9.5 -0.375,-5 -0.25,-9.5 1.125,-3.375 2.75,-6.125 1.625,-2.875 3.625,-5.375 2,-2.625 4.125,-4.875 2.25,-2.375 4.375,-4.75 0.75,0 1.375,0.375 0.5,-1.375 1.5,-2.375 1,-1 2.125,-1.75 1.125,-0.875 2.25,-1.625 1.125,-0.875 1.87499,-2 3.125,-0.75 5.5,-2.125 2.5,-1.375 4.75,-3 2.25,-1.625 4.625,-3 2.375,-1.375 5.5,-2.125 1.125,-1.25 2.75,-2.125 1.75,-0.875 3.375,-1.625 1.75,-0.75 3.25,-1.625 1.625,-0.875 2.625,-2.375 0.75,1 2.125,0.75 1.375,-0.375 2.5,-0.75 0.75,-0.125 1.25,0.25 0.5,0.375 0.875,0.875 0.5,0.375 0.75,0.5 0.375,0.125 0.75,-0.75 1,0.125 0.5,0.875 -0.375,0.75 -0.5,1 1.25,-0.25 2,0.5 0.875,0.625 2.625,0.875 0.625,0.625 0.375,1 -0.25,0.375 -0.375,1.25 4.5,1.375 5.75,4.375 1.25,2.875 0.25,6.125 -1,3.125 -3.75,5.875 -2.625,2.625 -5.875,3.5 -3.875,1 -7.25,2 -3.25,1 -6.375,2.25 -3,1.25 -5.75,3 -2.625,1.625 -4.625,3.875 -3.5,1 -6.375,2.75 -2.75,1.75 -5.25,3.875 -2.375,2.125 -4.625,4.5 -2.24999,2.25 -4.49999,4.5 0,2.125 -0.75,3.25 -0.75,1.125 -1.625,2.25 0.25,2.375 1,4.125 0.875,1.625 1.75,3.375 9.99999,3 21.12499,3.75 11.25,0.625 22.25,0.75 1.125,1.5 2.5,2.875 1.5,1.25 2.625,2.625 1.25,1.375 1.875,3.25 0.75,1.75 0.375,4.25 -2.125,2.125 -4.625,4.125 -2.5,1.875 -5,3.75 -1.125,0.125 -2.75,0 -1.5,-0.125 -3.25,-0.125 -1.625,0 -3.375,0.25 -1.625,0.125 -3.125,0.75 -7.875,-0.25 -16.125,-1.875 -8.25,-1.75 -15.24999,-4.125 -1.375,-1.625 -2.875,-3 -1.5,-1.5 -4,-2.125 z m 68.49999,6.625 q -0.375,0.125 -0.5,-0.25 -0.125,-0.375 -0.125,-0.75 0.125,-0.375 0.375,-0.625 0.375,-0.25 0.875,0 -1.625,-2 -2.125,-3.625 -0.375,-1.625 -1.625,-4 0.375,-0.375 0.5,-1 0.125,-0.75 0.375,-1.375 0.125,-0.625 0.375,-0.875 0.375,-0.375 0.875,0.125 -0.25,-1.375 0,-2.25 0.25,-0.875 0.5,-1.625 0.375,-0.75 0.5,-1.5 0.125,-0.75 -0.375,-1.75 2.375,-3.25 3.125,-7 0.75,-3.875 0.875,-7 1.125,-1.125 1.875,-3 0.875,-1.875 1.25,-3.875 0.375,-2 0.375,-3.875 0,-2 -0.5,-3.125 0.125,-0.5 0.5,-0.5 0.5,-0.125 1.125,0 0.875,-5 1.125,-11.125 0.375,-6.125 1.25,-11.75 1,-5.75 3.125,-10 2.125,-4.375 6.75,-5.625 0.875,3.125 2.25,5.5 1.5,2.375 3.125,4.625 1.75,2.25 3.5,4.5 1.75,2.25 3.25,5 -0.125,2.875 -0.625,6.625 -0.375,3.75 -1.125,7.625 -0.625,3.875 -1.375,7.5 -0.625,3.625 -1.25,6.125 0.125,0.625 0.875,0.875 0.75,0.125 0.25,1.375 3.625,-0.875 7.5,-1.625 4,-0.875 7.75,-1.625 3.875,-0.875 7.5,-2 3.75,-1.125 7,-2.75 0.75,-6 1.875,-11.875 1.125,-5.875 0.25,-11.875 0.75,-0.625 1.25,-1.5 0.5,-0.875 1.5,-1.125 -0.75,-2.875 -0.625,-6 0.125,-3.25 1,-6 1,-2.75 2.875,-4.75 1.875,-2.125 4.625,-2.75 1.625,2.375 2.875,5.125 1.25,2.75 2.5,5.625 1.25,2.75 2.625,5.25 1.5,2.5 3.75,4.25 0.375,4.375 0.625,9 0.25,4.5 0.375,9.375 -1.125,5.625 -2.625,11 -1.375,5.25 -2,11.25 -1,1.125 -1.625,2.75 -0.625,1.5 -1.25,3.125 -0.5,1.5 -1.25,3 -0.75,1.5 -1.875,2.5 0.5,1.75 0.125,3.375 -0.25,1.5 0.875,3.625 0.25,3.875 -1,6.5 -1.125,2.5 -3.25,4.375 -2,1.75 -4.75,2.875 -2.625,1 -5.25,1.875 -1.25,-0.75 -2.375,-1.5 -1,-0.875 -2.5,-1.25 l 0.625,-1.125 q -2.5,-2.5 -4.375,-5.25 -1.75,-2.875 -1.625,-6.5 0,-0.125 0.25,-1.625 0.25,-1.625 0.5,-3.375 0.375,-1.75 0.625,-3.25 0.375,-1.625 0.375,-1.75 -3.5,0.375 -7.25,1.625 -3.75,1.25 -7.375,2.875 -3.5,1.5 -6.625,3.25 -3,1.625 -4.875,2.75 0,0.375 -0.625,2.125 -0.625,1.75 -1.5,3.75 -0.875,1.875 -2,3.375 -1,1.5 -2.125,1.375 0.25,0.625 0.5,1 0.25,0.25 0,1.125 -2.125,0.625 -3.875,1.625 -1.625,1 -3.375,1.625 -1.75,0.75 -3.875,0.625 -2,0 -4.875,-1.5 0,-0.875 -0.75,-1.5 -0.75,-0.75 -1.625,-1.25 -0.75,-0.5 -1.375,-0.875 -0.625,-0.375 -0.625,-0.75 z m 83.875,-7.625 1.625,-1.25 0.125,-2.625 q 3.125,-7.625 6.375,-14.625 3.375,-7 7,-14.375 1.125,-2.375 2.25,-4.75 1.25,-2.375 2.375,-4.875 -0.125,-0.5 -0.125,-1 0,-0.625 0.25,-1.375 1.75,-2.5 2.75,-4.5 1.125,-2 2.125,-4.125 1.125,-2.5 2.375,-5 1.375,-2.5 3.375,-4.875 l 0.875,-1.25 1.375,0.125 q 0.5,-0.25 1,-0.375 0.625,-0.25 1.5,-0.25 l 2.25,0.375 q 4.125,-1.875 7.25,-5.375 3.25,-3.625 6.5,-8.625 l 1.5,-2.125 2,1.25 q 0.625,0.375 2,0.75 1.375,0.375 2.875,0.875 2.625,0.625 5.125,1.5 2.5,0.75 3.875,2.125 l 0.625,1.125 q 0.25,1.375 0.375,2.5 0.25,1.125 0.5,2.25 0.5,2.625 0.875,5.25 0.375,2.5 0.5,5.625 0.625,2.5 1.125,5.125 0.625,2.5 1.125,5 0.625,3.625 1.375,7 0.75,3.25 2,6.25 1.25,0 1.5,0.125 1.5,-0.625 3.5,-0.75 l 1.625,-0.125 0.5,1.5 q 0.25,0.375 0.625,0.75 0.375,0.375 0.875,0.75 2,0.125 2.875,0.875 1,0.625 1.625,1.25 0.25,0.25 0.625,0.625 0.375,0.25 0.625,0.375 l 2.25,0.875 -1.25,2.375 q -1.375,2.625 -4.25,5.125 -2.75,2.5 -6.25,4.125 0.25,0.875 0.25,1.625 0.125,0.75 0.375,1.75 0.5,2.5 0.75,5.25 0.375,2.625 0,5.5 -1.25,3.25 -3,5.875 -1.625,2.5 -4,4.625 -2.25,2 -5.125,3.375 -2.875,1.25 -6,1.375 -1.75,-0.375 -2.625,-0.875 -0.75,-0.5 -1.375,-1 -1,-0.75 -1.625,-1 l -1.625,-0.75 0.5,-1.875 q 0.375,-1 -0.125,-1.75 -0.375,-0.75 -1.75,-2 -0.5,-0.375 -0.875,-0.75 -0.375,-0.5 -0.875,-1 l -2.5,-2.875 4.125,-1.125 q 3.75,-1 5,-2.5 1.25,-1.625 1,-5.625 -3.125,-0.625 -5.125,-0.125 -2,0.375 -4,0.875 -2.875,0.75 -5.625,1.375 -2.75,0.5 -6,0.5 -2.125,0 -4.5,-0.375 l -1.375,-0.125 -0.375,-1.375 q 0,-0.25 -0.375,-0.5 -0.25,-0.375 -0.5,-0.625 -0.625,-0.75 -1.5,-2 -0.875,-1.25 -0.375,-3.125 -0.875,-1.375 -1,-2.875 -0.5,1 -0.875,2 -0.25,0.875 -0.5,1.75 l -0.5,1.625 -1.625,0.25 q -0.25,0.25 -0.5,0.75 -0.125,0.5 0,0.75 l 0.5,1.375 -1.25,1.125 q -0.25,0.375 -0.625,0.625 -0.375,0.25 -0.625,0.5 -0.25,1.375 -0.75,2.625 -0.375,1.25 -0.875,2.5 -0.625,2 -1.25,3.875 -0.5,1.875 -0.5,3.75 l -0.5,1.625 q -0.625,1 -1.625,1.5 -0.875,0.5 -1.75,0.875 -1.25,0.5 -1.75,1 l -0.375,1.625 -1.875,0.25 q -1.625,0.375 -2.375,0.5 -0.625,0.125 -1.5,0.125 l -1.625,-0.125 q -1.5,-1.5 -2.5,-2.25 -0.875,-0.875 -2.125,-1.5 l -0.75,-1 q -0.5,-1 -0.625,-1.75 -0.125,-0.875 -0.375,-1.75 -0.25,-1.625 -0.75,-2.25 z m 39.875,-32.5 q -1.75,2.5 -3.375,5.25 0.875,-0.125 1.625,-0.125 0.875,0 1.75,-0.125 4.375,-0.25 8.125,-0.625 3.75,-0.375 8.125,-1.25 -1,-4.625 -2.25,-9.375 -1.125,-4.875 -2.5,-9.75 l -0.625,1.25 q -3.125,3.375 -6,7.25 -2.875,3.875 -4.75,7.375 z m 83.375,44.875 q -5.5,0.75 -10,-0.5 -4.5,-1.25 -8.125,-3.875 -3.5,-2.625 -6.125,-6.25 -2.5,-3.625 -4.125,-7.75 -1.125,-8.5 0.625,-15.375 1.75,-7 5.125,-12.875 3.375,-5.875 7.625,-11 4.375,-5.125 8.375,-9.875 0.875,0.375 1.375,0 0.625,-0.375 1,-1 0.5,-0.625 1,-1.25 0.625,-0.625 1.375,-0.875 0.5,-1.125 1.25,-1.875 0.875,-0.75 1.75,-1.375 1,-0.75 1.75,-1.5 0.875,-0.75 1.5,-1.875 1.25,-0.25 2.125,-0.875 1,-0.625 1.75,-1.375 0.875,-0.75 1.75,-1.375 0.875,-0.625 2.125,-1 v -1.625 q 2.75,-1.25 4,-2.75 1.25,-1.5 3,-3.875 1.375,-0.125 2.125,-0.125 0.875,0 2.625,-0.25 1.125,-2.125 2.125,-3.125 1,-1 2.875,-2.25 1.875,1 4,1.25 2.125,0.125 3.875,1.875 0.125,1.5 0.875,2.375 0.75,0.75 1.625,1.5 0.875,0.625 1.75,1.375 0.875,0.75 1.125,2.125 0.625,0 0.75,-0.25 0.25,-0.25 0.875,-0.125 0.25,1 0.5,1.625 0.25,0.625 0.5,1.125 0.375,0.5 0.625,1.125 0.375,0.625 0.625,1.5 -0.625,1.5 -1.125,3.25 -0.5,1.625 -2,2.25 0,1 0.75,1.125 0.75,0 0.875,0.875 0.125,1.125 -0.375,1.875 3.5,5.875 6.375,12.375 2.875,6.375 6.5,12.25 -0.25,1.75 0.125,3.5 0.5,1.625 1.125,3.25 0.75,1.625 1.375,3.25 0.625,1.625 0.875,3.25 0.25,2.125 0,4.625 -0.25,2.375 -1,4.625 -0.75,2.25 -2,4.25 -1.25,1.875 -2.875,2.875 -2,2.5 -5,4.125 -3,1.5 -5.5,3.625 -1.75,1 -3.75,1.5 -2,0.375 -4.125,0.875 -1.625,1 -3.875,2 -2.25,0.875 -4.625,1.625 -2.375,0.75 -4.75,1.25 -2.375,0.375 -4.25,0.125 -4.5,1.625 -8.75,2.25 -4.25,0.625 -10,-0.625 z m 1.625,-45.5 q -1.25,2.875 -3,5.25 -1.625,2.25 -3.25,4.625 -1.625,2.375 -2.875,5.125 -1.125,2.625 -1.25,6.25 2.5,2.125 5.875,2.625 3.5,0.375 7.125,0.125 3.625,-0.375 7.25,-1 3.625,-0.625 6.5,-0.625 0,-1.125 1,-1.125 5.25,-0.5 9.75,-2.875 4.5,-2.5 9.375,-5 0.625,-1.5 1.625,-2.625 1,-1.125 1.125,-3.25 -0.625,-1.125 -0.875,-1.875 -0.125,-0.75 -0.125,-2.25 -3.25,-4.5 -5.625,-9.75 -2.375,-5.375 -5.5,-10.125 -0.25,0.625 -1,1.25 -0.75,0.625 -1.625,-0.25 -0.375,1.25 -1.125,1.75 -0.75,0.375 -1.75,0.375 -0.875,0 -1.875,-0.375 -0.875,-0.375 -1.625,-1 -4.375,3.5 -8.75,6.75 -4.25,3.25 -7.75,7.625 -0.625,0.375 -0.75,0.25 -0.125,-0.125 -0.875,0.125 z m 59.875,-25.5 q -0.125,-1 -0.5,-1.75 -0.25,-0.875 -0.625,-1.875 -0.625,-1.5 -1.125,-3.25 -0.5,-1.75 -0.5,-4.125 0.25,-1.25 0.625,-1.75 0.375,-0.625 0.75,-1 l 0.5,-2.25 h 1.875 q 1,0.125 2,0.125 1.125,0 2.125,0 4.75,0 9.75,-0.375 5,-0.375 10.25,-0.875 5.75,-0.75 12.375,-1.125 0.625,-1.375 0.75,-1.75 0.25,-0.375 0.5,-0.875 l 1.375,-0.75 q 2.875,-0.125 4,0.75 1.125,0.75 1.75,1.5 3.25,-0.25 6.625,-0.625 3.375,-0.5 7,-1 5,-0.625 10.125,-1.25 5.125,-0.625 10,-0.625 2.125,0 4,0.125 1.875,0.125 3.625,0.375 l 1.5,1.125 q 0.5,0.875 1.25,1.625 0.75,0.75 1.75,1.5 1.875,1.5 3.625,3.75 1.875,2.25 1.375,6.625 l -0.625,1.25 q -0.5,0.5 -1.25,1 l -1.25,1.625 h -1.375 q -1.25,0 -1.875,0.25 -0.625,0.125 -1.5,0.5 -0.5,0.25 -1.125,0.5 -0.625,0.125 -1.375,0.375 -1.375,-0.125 -2.125,-0.125 -0.75,0 -1.75,0 -3.75,0 -8.125,0.5 -4.375,0.5 -8.5,1.125 -3,0.375 -5.75,0.75 -2.75,0.25 -5,0.5 -1.25,3.25 -2.25,5.75 -1,2.5 -2.125,5 -1.125,2.5 -2.125,5.125 -1,2.5 -1.875,5.625 -1.5,2.25 -2.5,4.375 -1,2 -1.625,4.625 -1.875,2.125 -2.75,4.625 -0.75,2.5 -1.375,4.25 l -0.5,1.875 q -0.875,0.875 -1.125,1.375 -0.125,0.5 -0.625,1.125 -0.375,1.625 -1,3.125 -0.25,0.625 -0.5,1.375 -0.25,0.625 -0.125,1 -0.25,1.375 -0.75,2.125 0,0.75 -0.125,1.5 -0.125,0.75 -0.25,1.5 -0.25,0.875 -0.375,1.625 -0.125,0.625 0.125,1.25 0.375,0.5 0.75,1 0.375,0.5 0.625,1.25 0.25,0.25 0.625,0.375 0.375,0.125 0.625,0.375 1,0.875 1.875,1 l 1.25,1.5 q 0.75,4.5 -1.375,7 -2.25,2.875 -7.5,2.875 l -1.75,-0.125 q -0.875,-0.875 -1,-1.125 -1.125,-0.5 -1.875,-0.875 -0.75,-0.25 -1.375,-1.125 -0.25,-0.25 -0.625,-0.25 -0.375,-0.125 -0.625,-0.375 -1.25,-0.375 -2,-0.875 l -1.375,-0.75 q 0.125,-1.25 0.125,-1.75 -1,-1.375 -1.625,-3 -0.5,-1.625 -0.875,-3.375 -0.375,-1.375 -0.75,-2.5 -0.25,-1.125 -0.875,-2 -0.25,-8.75 1.625,-14.625 1.875,-6 4.125,-11.625 1.25,-3 2.375,-6.125 1.125,-3.125 2,-6.375 l 1.375,-1.375 q 0.875,-0.75 1.125,-0.875 0,-1.625 0.625,-3.125 0.625,-1.625 1.375,-3.25 0.5,-1 0.875,-2 0.5,-1 0.625,-1.75 -0.875,0 -1.625,0.125 -0.625,0 -1.375,0.125 -1.625,0.375 -3.125,0.375 -1.125,0 -1.625,-0.125 -1,0.5 -1.875,0.625 -0.875,0 -1.75,0 h -1.5 -1.5 q -1.5,0 -2.375,0.375 -1.75,0 -2.25,0 -0.5,0 -1.125,0 h -1.5 -1.5 q -1,0 -2.25,-0.125 -1.25,-0.25 -2.625,-1 l -0.875,-1 q -0.75,-1.375 -1.375,-1.5 l -1.375,-0.375 z m 77.125,72 q -1.75,-1.125 -2.75,-2.875 -1.125,-1.75 -1.75,-3.75 -0.75,-2 -1.125,-4.125 -0.5,-2.25 -1,-4.25 0,-1.75 0.75,-2.5 0.75,-0.875 1.625,-1.625 3,-0.125 5.375,-0.5 2.375,-0.375 4.625,-0.75 2.25,-0.375 4.5,-0.625 2.25,-0.375 4.875,-0.375 1.875,-3.875 3.5,-7.375 1.625,-3.625 3.125,-6.875 0.75,-3.125 1.875,-5.75 1.25,-2.75 2.375,-5.125 1.125,-2.5 2,-4.875 0.875,-2.5 1.125,-5.25 1.5,-4.375 2.625,-8 1.25,-3.75 1.875,-8.875 -4.75,0.75 -7.625,1.5 -2.875,0.625 -4.125,1.25 -2.5,-0.125 -4,-1 -1.375,-0.875 -2.25,-2.125 -0.875,-1.25 -1.5,-2.875 -0.625,-1.625 -1.5,-3.375 0.5,-1.125 0.25,-3.25 -0.25,-2.25 -1.5,-3.25 1,-0.25 1.5,-1.625 0.5,-1.5 0.125,-2.25 2.125,-0.625 4.5,-0.75 2.375,-0.25 4.625,-0.375 2.375,-0.25 4.5,-0.5 2.125,-0.375 3.625,-1.375 6.5,-0.25 13.5,-0.5 7.125,-0.25 13.125,-0.625 2.25,0.75 5.125,0.75 3,0 5.875,0.375 3,0.375 5.25,1.625 2.375,1.25 3.25,4.375 1.875,0.25 2.75,1 1,0.75 1.25,1.875 0.25,1 0.125,2.375 0,1.25 0,2.5 -2,1.5 -5.125,2.5 -3,0.875 -6.625,1.5 -3.625,0.5 -7.625,0.75 -3.875,0.125 -7.625,0.25 -0.625,4.125 -2.25,9.75 -1.5,5.5 -3.125,10.875 -1.625,5.25 -2.875,9.5 -1.125,4.125 -1,5.375 -1.25,2.875 -2.125,4.875 -0.75,2 -1.5,3.75 -0.625,1.75 -1.375,3.5 -0.625,1.625 -1.625,3.75 h 8.5 q 0.25,1.375 1.125,1.875 0.875,0.5 1.875,0.875 1,0.375 1.75,1 0.875,0.5 0.875,1.75 2.375,0.625 3,1.875 0.625,1.25 0.25,2.75 -0.25,1.375 -1.25,2.875 -0.875,1.5 -1.75,2.625 -1.125,-0.25 -2.125,0.625 -1,0.75 -1.875,1.75 -3.625,-0.5 -7.125,-0.125 -3.5,0.375 -6.5,0.625 -0.625,0.125 -0.5,0.75 0.125,0.5 -0.25,0.75 -3.875,-1.25 -8,-1 -4,0.25 -8.25,1.25 -4.125,0.875 -8.5,1.875 -4.375,1.125 -8.875,1.25 z m 75.5,-12.375 q -3.625,-2.75 -6,-6.875 -2.25,-4.125 -3.625,-8.75 -1.25,-4.625 -1.75,-9.5 -0.375,-5 -0.25,-9.5 1.125,-3.375 2.75,-6.125 1.625,-2.875 3.625,-5.375 2,-2.625 4.125,-4.875 2.25,-2.375 4.375,-4.75 0.75,0 1.375,0.375 0.5,-1.375 1.5,-2.375 1,-1 2.125,-1.75 1.125,-0.875 2.25,-1.625 1.125,-0.875 1.875,-2 3.125,-0.75 5.5,-2.125 2.5,-1.375 4.75,-3 2.25,-1.625 4.625,-3 2.375,-1.375 5.5,-2.125 1.125,-1.25 2.75,-2.125 1.75,-0.875 3.375,-1.625 1.75,-0.75 3.25,-1.625 1.625,-0.875 2.625,-2.375 0.75,1 2.125,0.75 1.375,-0.375 2.5,-0.75 0.75,-0.125 1.25,0.25 0.5,0.375 0.875,0.875 0.5,0.375 0.75,0.5 0.375,0.125 0.75,-0.75 1,0.125 0.5,0.875 -0.375,0.75 -0.5,1 1.25,-0.25 2,0.5 0.875,0.625 2.625,0.875 0.625,0.625 0.375,1 -0.25,0.375 -0.375,1.25 4.5,1.375 5.75,4.375 1.25,2.875 0.25,6.125 -1,3.125 -3.75,5.875 -2.625,2.625 -5.875,3.5 -3.875,1 -7.25,2 -3.25,1 -6.375,2.25 -3,1.25 -5.75,3 -2.625,1.625 -4.625,3.875 -3.5,1 -6.375,2.75 -2.75,1.75 -5.25,3.875 -2.375,2.125 -4.625,4.5 -2.25,2.25 -4.5,4.5 0,2.125 -0.75,3.25 -0.75,1.125 -1.625,2.25 0.25,2.375 1,4.125 0.875,1.625 1.75,3.375 10,3 21.125,3.75 11.25,0.625 22.25,0.75 1.125,1.5 2.5,2.875 1.5,1.25 2.625,2.625 1.25,1.375 1.875,3.25 0.75,1.75 0.375,4.25 -2.125,2.125 -4.625,4.125 -2.5,1.875 -5,3.75 -1.125,0.125 -2.75,0 -1.5,-0.125 -3.25,-0.125 -1.625,0 -3.375,0.25 -1.625,0.125 -3.125,0.75 -7.875,-0.25 -16.125,-1.875 -8.25,-1.75 -15.25,-4.125 -1.375,-1.625 -2.875,-3 -1.5,-1.5 -4,-2.125 z"
         id="text4"
         style="font-size:128px;font-family:'Permanent Marker';-inkscape-font-specification:'Permanent Marker, Normal';fill:#ffffff"
         aria-label="CHAOTIC"
         inkscape:label="ChaoticText" /></g></g></svg>
